<?xml version="1.0" encoding="UTF-8"?>
<!DOCTYPE svg PUBLIC "-//W3C//DTD SVG 1.1//EN" "http://www.w3.org/Graphics/SVG/1.1/DTD/svg11.dtd">
<svg xmlns="http://www.w3.org/2000/svg" version="1.1" width="173px" height="291px" style="shape-rendering:geometricPrecision; text-rendering:geometricPrecision; image-rendering:optimizeQuality; fill-rule:evenodd; clip-rule:evenodd" xmlns:xlink="http://www.w3.org/1999/xlink">
<g><path style="opacity:0.987" fill="#0a0908" d="M 56.5,-0.5 C 61.1667,-0.5 65.8333,-0.5 70.5,-0.5C 79.5071,1.67799 87.8404,5.51132 95.5,11C 97.4521,13.0739 99.2854,15.2406 101,17.5C 107.179,10.6979 114.346,9.53121 122.5,14C 126.698,15.9327 130.365,18.5994 133.5,22C 138.21,22.3751 142.877,23.0418 147.5,24C 149.137,27.2846 149.804,30.7846 149.5,34.5C 153.555,34.1758 157.555,34.5091 161.5,35.5C 162.191,48.1487 163.024,60.8154 164,73.5C 164.368,74.91 165.201,75.91 166.5,76.5C 168.532,75.181 170.532,75.181 172.5,76.5C 172.5,77.5 172.5,78.5 172.5,79.5C 171.027,80.072 169.693,80.9054 168.5,82C 170.46,86.4104 171.46,91.077 171.5,96C 171.519,103.527 170.019,110.693 167,117.5C 164.603,120.4 161.77,122.733 158.5,124.5C 156.524,130.291 153.191,135.124 148.5,139C 143.128,143.012 137.795,147.012 132.5,151C 135.295,152.793 137.795,154.96 140,157.5C 151.282,183.738 155.782,211.071 153.5,239.5C 148.236,244.576 142.236,248.742 135.5,252C 132.438,252.741 129.438,252.575 126.5,251.5C 126.167,254 125.833,256.5 125.5,259C 126.61,266.814 127.11,274.647 127,282.5C 124.839,286.505 121.672,289.171 117.5,290.5C 106.833,290.5 96.1667,290.5 85.5,290.5C 81.4704,285.723 80.3037,280.389 82,274.5C 87.3756,269.456 93.0422,264.789 99,260.5C 100.552,251.214 101.218,241.88 101,232.5C 98.9592,231.577 96.7925,231.244 94.5,231.5C 94.5,230.167 94.5,228.833 94.5,227.5C 88.6597,227.781 82.6597,227.781 76.5,227.5C 76.5026,232.815 73.836,234.815 68.5,233.5C 68.6578,242.352 68.3245,251.185 67.5,260C 68.1207,266.558 69.1207,273.058 70.5,279.5C 69.3245,284.329 66.6579,287.996 62.5,290.5C 50.8333,290.5 39.1667,290.5 27.5,290.5C 23.9855,286.059 22.8189,281.059 24,275.5C 29.2985,270.356 34.9651,265.689 41,261.5C 42.0086,259.975 42.5086,258.308 42.5,256.5C 35.872,254.101 29.7054,250.768 24,246.5C 22.4797,239.623 21.6464,232.623 21.5,225.5C 22.8346,205.994 26.6679,186.994 33,168.5C 34.7939,164.407 36.9606,160.574 39.5,157C 38.8993,155.395 37.8993,154.062 36.5,153C 22.5592,145.989 13.7258,134.822 10,119.5C 7.40581,118.538 5.40581,116.871 4,114.5C 2.32233,109.434 0.822326,104.434 -0.5,99.5C -0.5,95.1667 -0.5,90.8333 -0.5,86.5C 0.890847,84.0404 2.05751,81.3738 3,78.5C 6.38743,75.1126 9.72076,71.7792 13,68.5C 13.1145,57.4587 13.2812,46.4587 13.5,35.5C 14.8221,35.67 15.9887,35.3366 17,34.5C 19.646,18.254 28.8126,12.9207 44.5,18.5C 44.9498,13.617 46.1164,8.95035 48,4.5C 50.7465,2.54457 53.5798,0.877906 56.5,-0.5 Z"/></g>
<g><path style="opacity:1" fill="#ac0a00" d="M 54.5,5.5 C 71.0781,3.29974 85.0781,8.13307 96.5,20C 81.488,21.044 66.488,21.7106 51.5,22C 50.3705,17.9215 50.2039,13.7548 51,9.5C 51.6897,7.64977 52.8564,6.31643 54.5,5.5 Z"/></g>
<g><path style="opacity:1" fill="#9a0802" d="M 108.5,16.5 C 114.306,16.2679 119.639,17.7679 124.5,21C 118.343,21.9654 112.343,21.4654 106.5,19.5C 107.193,18.4822 107.859,17.4822 108.5,16.5 Z"/></g>
<g><path style="opacity:1" fill="#f5f4f1" d="M 137.5,28.5 C 134.313,31.9253 130.313,33.2587 125.5,32.5C 95.4883,31.1899 65.3216,31.1899 35,32.5C 32.0669,31.721 29.2335,30.721 26.5,29.5C 49.4561,27.1927 72.6228,25.8594 96,25.5C 110.075,25.293 123.908,26.293 137.5,28.5 Z"/></g>
<g><path style="opacity:1" fill="#e9ca6e" d="M 137.5,28.5 C 139.833,28.5 142.167,28.5 144.5,28.5C 144.667,59.1685 144.5,89.8351 144,120.5C 140.664,132.157 134.498,141.99 125.5,150C 118.662,151.326 113.662,155.16 110.5,161.5C 101.741,166.315 92.4077,168.982 82.5,169.5C 84.1103,163.882 83.7769,158.382 81.5,153C 82.3147,151.02 83.648,149.52 85.5,148.5C 84.6789,151.554 84.6789,154.554 85.5,157.5C 96.9353,152.896 105.269,145.063 110.5,134C 107.518,133.502 104.518,133.335 101.5,133.5C 101.5,133.167 101.5,132.833 101.5,132.5C 109.59,134.305 116.09,131.972 121,125.5C 122.392,123.059 122.559,120.726 121.5,118.5C 121.5,117.5 121.5,116.5 121.5,115.5C 126.716,115.866 131.716,115.032 136.5,113C 139.462,108.01 139.128,103.344 135.5,99C 130.58,97.7497 125.58,97.2497 120.5,97.5C 120.5,95.5 120.5,93.5 120.5,91.5C 119.5,91.5 118.5,91.5 117.5,91.5C 119.181,89.9925 121.181,88.9925 123.5,88.5C 125.78,90.2227 128.447,90.8893 131.5,90.5C 131.643,88.7376 131.309,87.0709 130.5,85.5C 131.5,84.1667 132.5,82.8333 133.5,81.5C 132.312,80.16 130.812,79.4934 129,79.5C 125.213,81.2587 122.046,80.592 119.5,77.5C 119.448,73.8019 119.114,70.1352 118.5,66.5C 115.813,66.3359 113.146,66.5026 110.5,67C 104.527,69.2687 98.5266,71.4353 92.5,73.5C 88.4745,72.3364 86.4745,69.5031 86.5,65C 86.3536,62.9658 87.0203,61.2991 88.5,60C 96.947,55.7284 106.614,54.2284 117.5,55.5C 117.5,47.8333 117.5,40.1667 117.5,32.5C 120.167,32.5 122.833,32.5 125.5,32.5C 130.313,33.2587 134.313,31.9253 137.5,28.5 Z"/></g>
<g><path style="opacity:1" fill="#fded94" d="M 26.5,29.5 C 29.2335,30.721 32.0669,31.721 35,32.5C 65.3216,31.1899 95.4883,31.1899 125.5,32.5C 122.833,32.5 120.167,32.5 117.5,32.5C 117.5,40.1667 117.5,47.8333 117.5,55.5C 106.614,54.2284 96.947,55.7284 88.5,60C 87.0203,61.2991 86.3536,62.9658 86.5,65C 86.4745,69.5031 88.4745,72.3364 92.5,73.5C 98.5266,71.4353 104.527,69.2687 110.5,67C 113.146,66.5026 115.813,66.3359 118.5,66.5C 119.114,70.1352 119.448,73.8019 119.5,77.5C 109.593,73.4364 101.26,75.4364 94.5,83.5C 94.3986,87.5753 96.3986,90.0753 100.5,91C 106.122,92.8287 111.789,92.9954 117.5,91.5C 118.5,91.5 119.5,91.5 120.5,91.5C 120.5,93.5 120.5,95.5 120.5,97.5C 112.583,97.679 109.083,101.679 110,109.5C 111.817,112.316 113.983,114.816 116.5,117C 114.77,121.547 111.437,124.214 106.5,125C 102.514,125.499 98.5138,125.666 94.5,125.5C 92.5,122.833 90.5,120.167 88.5,117.5C 86.9894,115.559 84.9894,115.059 82.5,116C 80.3586,117.308 78.3586,118.808 76.5,120.5C 73.2715,117.191 69.6048,116.191 65.5,117.5C 63.9291,119.635 62.5957,121.968 61.5,124.5C 52.217,125.645 43.5503,123.979 35.5,119.5C 38.5287,117.628 40.6954,114.961 42,111.5C 42.5279,106.021 40.0279,102.854 34.5,102C 30.8484,101.501 27.1817,101.335 23.5,101.5C 23.1924,99.076 23.5258,96.7427 24.5,94.5C 26.5336,93.4412 28.5336,92.4412 30.5,91.5C 40.1079,93.4599 49.4412,92.6265 58.5,89C 59.0219,88.4387 59.3552,87.772 59.5,87C 58.3498,85.019 57.0165,83.1857 55.5,81.5C 52.6368,78.2459 48.9702,76.9125 44.5,77.5C 39.2311,77.1348 34.8977,78.9681 31.5,83C 28.8078,83.4298 26.1411,83.2631 23.5,82.5C 23.5,76.1667 23.5,69.8333 23.5,63.5C 27.7016,63.8168 31.7016,63.4834 35.5,62.5C 39.8461,62.3343 44.1794,62.501 48.5,63C 53.7337,65.7844 59.067,68.2844 64.5,70.5C 66.6878,70.6927 68.3545,69.8594 69.5,68C 61.0466,59.8367 50.88,56.3367 39,57.5C 33.4794,57.6457 27.9794,57.979 22.5,58.5C 22.1888,50.4875 22.0221,42.4875 22,34.5C 22.6556,32.0139 24.1556,30.3472 26.5,29.5 Z"/></g>
<g><path style="opacity:1" fill="#f1f1f1" d="M 157.5,41.5 C 157.827,51.015 157.494,60.3483 156.5,69.5C 154.44,62.8201 152.274,56.1534 150,49.5C 149.502,46.1832 149.335,42.8499 149.5,39.5C 152.698,38.9644 155.365,39.631 157.5,41.5 Z"/></g>
<g><path style="opacity:1" fill="#0a0804" d="M 106.5,56.5 C 116.167,56.5 125.833,56.5 135.5,56.5C 135.5,57.8333 135.5,59.1667 135.5,60.5C 125.516,61.1661 115.516,61.6661 105.5,62C 100.804,63.6812 96.4707,65.8479 92.5,68.5C 88.5251,67.9061 87.5251,65.7395 89.5,62C 95.0382,59.3738 100.705,57.5405 106.5,56.5 Z"/></g>
<g><path style="opacity:1" fill="#6d6e6e" d="M 157.5,41.5 C 158.823,51.008 158.823,60.6746 157.5,70.5C 156.893,70.3764 156.56,70.0431 156.5,69.5C 157.494,60.3483 157.827,51.015 157.5,41.5 Z"/></g>
<g><path style="opacity:1" fill="#820600" d="M 149.5,65.5 C 151.755,68.7068 151.921,72.0401 150,75.5C 149.502,72.1832 149.335,68.8499 149.5,65.5 Z"/></g>
<g><path style="opacity:1" fill="#cbbf7e" d="M 35.5,62.5 C 31.7016,63.4834 27.7016,63.8168 23.5,63.5C 23.5,69.8333 23.5,76.1667 23.5,82.5C 23.1667,82.5 22.8333,82.5 22.5,82.5C 22.5,75.8333 22.5,69.1667 22.5,62.5C 26.8333,62.5 31.1667,62.5 35.5,62.5 Z"/></g>
<g><path style="opacity:1" fill="#920701" d="M 16.5,72.5 C 17.7928,74.3635 17.7928,76.3635 16.5,78.5C 15.7691,76.5988 15.7691,74.5988 16.5,72.5 Z"/></g>
<g><path style="opacity:1" fill="#848581" d="M 119.5,77.5 C 122.046,80.592 125.213,81.2587 129,79.5C 130.812,79.4934 132.312,80.16 133.5,81.5C 132.5,82.8333 131.5,84.1667 130.5,85.5C 131.309,87.0709 131.643,88.7376 131.5,90.5C 128.447,90.8893 125.78,90.2227 123.5,88.5C 124.028,87.1526 124.195,85.8193 124,84.5C 118.931,79.0524 112.764,77.2191 105.5,79C 101.574,80.0266 97.9074,81.5266 94.5,83.5C 101.26,75.4364 109.593,73.4364 119.5,77.5 Z"/></g>
<g><path style="opacity:1" fill="#828280" d="M 55.5,81.5 C 47.32,77.9594 39.82,78.9594 33,84.5C 31.0972,86.441 30.2639,88.7743 30.5,91.5C 28.5336,92.4412 26.5336,93.4412 24.5,94.5C 23.5258,96.7427 23.1924,99.076 23.5,101.5C 23.5,103.167 23.5,104.833 23.5,106.5C 22.5076,98.6841 22.1743,90.6841 22.5,82.5C 22.8333,82.5 23.1667,82.5 23.5,82.5C 26.1411,83.2631 28.8078,83.4298 31.5,83C 34.8977,78.9681 39.2311,77.1348 44.5,77.5C 48.9702,76.9125 52.6368,78.2459 55.5,81.5 Z"/></g>
<g><path style="opacity:1" fill="#060503" d="M 123.5,88.5 C 121.181,88.9925 119.181,89.9925 117.5,91.5C 111.789,92.9954 106.122,92.8287 100.5,91C 96.3986,90.0753 94.3986,87.5753 94.5,83.5C 97.9074,81.5266 101.574,80.0266 105.5,79C 112.764,77.2191 118.931,79.0524 124,84.5C 124.195,85.8193 124.028,87.1526 123.5,88.5 Z"/></g>
<g><path style="opacity:1" fill="#050503" d="M 55.5,81.5 C 57.0165,83.1857 58.3498,85.019 59.5,87C 59.3552,87.772 59.0219,88.4387 58.5,89C 49.4412,92.6265 40.1079,93.4599 30.5,91.5C 30.2639,88.7743 31.0972,86.441 33,84.5C 39.82,78.9594 47.32,77.9594 55.5,81.5 Z"/></g>
<g><path style="opacity:1" fill="#b5ada9" d="M 163.5,82.5 C 161.265,83.2279 159.432,84.5612 158,86.5C 157.333,94.1667 157.333,101.833 158,109.5C 159.018,111.928 160.852,113.262 163.5,113.5C 160.628,118.727 157.128,119.394 153,115.5C 150.258,104.489 150.092,93.4885 152.5,82.5C 156.315,81.1923 159.981,81.1923 163.5,82.5 Z"/></g>
<g><path style="opacity:1" fill="#63210a" d="M 163.5,82.5 C 164.434,83.5676 164.768,84.901 164.5,86.5C 162.876,86.3601 161.71,87.0267 161,88.5C 160.333,94.8333 160.333,101.167 161,107.5C 162.039,108.71 163.206,109.71 164.5,110.5C 163.89,111.391 163.557,112.391 163.5,113.5C 160.852,113.262 159.018,111.928 158,109.5C 157.333,101.833 157.333,94.1667 158,86.5C 159.432,84.5612 161.265,83.2279 163.5,82.5 Z"/></g>
<g><path style="opacity:1" fill="#b3adaa" d="M 6.5,83.5 C 7.5,83.5 8.5,83.5 9.5,83.5C 9.66648,93.5056 9.49981,103.506 9,113.5C 5.67801,103.669 4.84468,93.6694 6.5,83.5 Z"/></g>
<g><path style="opacity:1" fill="#b5aeab" d="M 164.5,86.5 C 165.222,86.9175 165.722,87.5842 166,88.5C 166.778,95.9371 166.278,103.27 164.5,110.5C 163.206,109.71 162.039,108.71 161,107.5C 160.333,101.167 160.333,94.8333 161,88.5C 161.71,87.0267 162.876,86.3601 164.5,86.5 Z"/></g>
<g><path style="opacity:1" fill="#dc90bb" d="M 120.5,97.5 C 125.58,97.2497 130.58,97.7497 135.5,99C 139.128,103.344 139.462,108.01 136.5,113C 131.716,115.032 126.716,115.866 121.5,115.5C 121.5,116.5 121.5,117.5 121.5,118.5C 118.101,120.388 115.101,122.888 112.5,126C 106.319,126.819 100.319,126.653 94.5,125.5C 98.5138,125.666 102.514,125.499 106.5,125C 111.437,124.214 114.77,121.547 116.5,117C 113.983,114.816 111.817,112.316 110,109.5C 109.083,101.679 112.583,97.679 120.5,97.5 Z"/></g>
<g><path style="opacity:1" fill="#a40900" d="M 14.5,84.5 C 15.5,84.5 16.5,84.5 17.5,84.5C 16.9159,98.3199 18.0826,111.987 21,125.5C 23.0317,129.863 24.6984,134.196 26,138.5C 19.9011,131.297 16.2344,122.963 15,113.5C 14.5002,103.839 14.3335,94.1724 14.5,84.5 Z"/></g>
<g><path style="opacity:1" fill="#df94bd" d="M 23.5,101.5 C 27.1817,101.335 30.8484,101.501 34.5,102C 40.0279,102.854 42.5279,106.021 42,111.5C 40.6954,114.961 38.5287,117.628 35.5,119.5C 31.9581,119.187 28.6248,119.521 25.5,120.5C 23.7895,116.119 23.1228,111.453 23.5,106.5C 23.5,104.833 23.5,103.167 23.5,101.5 Z"/></g>
<g><path style="opacity:1" fill="#dec068" d="M 88.5,117.5 C 85.6623,118.17 83.1623,119.504 81,121.5C 80.2438,123.809 80.7438,125.809 82.5,127.5C 87.8982,132.144 94.2315,133.811 101.5,132.5C 101.5,132.833 101.5,133.167 101.5,133.5C 92.5364,134.97 84.5364,132.97 77.5,127.5C 74.0025,131.763 69.6692,133.43 64.5,132.5C 76.5073,127.64 76.8407,122.64 65.5,117.5C 69.6048,116.191 73.2715,117.191 76.5,120.5C 78.3586,118.808 80.3586,117.308 82.5,116C 84.9894,115.059 86.9894,115.559 88.5,117.5 Z"/></g>
<g><path style="opacity:1" fill="#070602" d="M 65.5,117.5 C 76.8407,122.64 76.5073,127.64 64.5,132.5C 56.8261,132.666 49.1594,132.5 41.5,132C 39.1401,130.82 36.8068,129.653 34.5,128.5C 33.3058,126.516 33.3058,124.516 34.5,122.5C 43.2995,127.095 52.2995,127.762 61.5,124.5C 62.5957,121.968 63.9291,119.635 65.5,117.5 Z"/></g>
<g><path style="opacity:1" fill="#080604" d="M 88.5,117.5 C 90.5,120.167 92.5,122.833 94.5,125.5C 100.319,126.653 106.319,126.819 112.5,126C 115.101,122.888 118.101,120.388 121.5,118.5C 122.559,120.726 122.392,123.059 121,125.5C 116.09,131.972 109.59,134.305 101.5,132.5C 94.2315,133.811 87.8982,132.144 82.5,127.5C 80.7438,125.809 80.2438,123.809 81,121.5C 83.1623,119.504 85.6623,118.17 88.5,117.5 Z"/></g>
<g><path style="opacity:1" fill="#e3c56b" d="M 35.5,119.5 C 43.5503,123.979 52.217,125.645 61.5,124.5C 52.2995,127.762 43.2995,127.095 34.5,122.5C 33.3058,124.516 33.3058,126.516 34.5,128.5C 33.9569,128.56 33.6236,128.893 33.5,129.5C 41.6472,145.656 54.3138,156.323 71.5,161.5C 71.693,157.434 71.3597,153.434 70.5,149.5C 71.4584,149.953 72.2917,150.619 73,151.5C 73.4995,157.491 73.6662,163.491 73.5,169.5C 53.0545,163.565 38.2212,150.898 29,131.5C 27.7262,127.846 26.5596,124.18 25.5,120.5C 28.6248,119.521 31.9581,119.187 35.5,119.5 Z"/></g>
<g><path style="opacity:1" fill="#a00801" d="M 149.5,119.5 C 152.254,121.053 153.087,123.386 152,126.5C 150.726,130.106 148.393,132.773 145,134.5C 146.371,129.546 147.871,124.546 149.5,119.5 Z"/></g>
<g><path style="opacity:1" fill="#fcec93" d="M 101.5,133.5 C 104.518,133.335 107.518,133.502 110.5,134C 105.269,145.063 96.9353,152.896 85.5,157.5C 84.6789,154.554 84.6789,151.554 85.5,148.5C 85.719,147.325 85.3857,146.325 84.5,145.5C 81.5351,144.727 78.5351,144.061 75.5,143.5C 71.6252,143.705 69.9585,145.705 70.5,149.5C 71.3597,153.434 71.693,157.434 71.5,161.5C 54.3138,156.323 41.6472,145.656 33.5,129.5C 33.6236,128.893 33.9569,128.56 34.5,128.5C 36.8068,129.653 39.1401,130.82 41.5,132C 49.1594,132.5 56.8261,132.666 64.5,132.5C 69.6692,133.43 74.0025,131.763 77.5,127.5C 84.5364,132.97 92.5364,134.97 101.5,133.5 Z"/></g>
<g><path style="opacity:1" fill="#79a3ac" d="M 127.5,154.5 C 125.399,157.265 123.733,160.265 122.5,163.5C 122.833,164.833 123.167,166.167 123.5,167.5C 126.833,178.167 130.167,188.833 133.5,199.5C 130.545,200.159 127.545,200.492 124.5,200.5C 121.068,189.371 117.735,178.205 114.5,167C 115.453,159.212 119.787,155.045 127.5,154.5 Z"/></g>
<g><path style="opacity:1" fill="#518597" d="M 127.5,154.5 C 131.697,156.19 135.197,158.857 138,162.5C 142.093,173.54 144.927,184.873 146.5,196.5C 142.106,197.349 137.772,198.349 133.5,199.5C 130.167,188.833 126.833,178.167 123.5,167.5C 126.694,167.824 127.694,166.658 126.5,164C 125.207,163.51 123.873,163.343 122.5,163.5C 123.733,160.265 125.399,157.265 127.5,154.5 Z"/></g>
<g><path style="opacity:1" fill="#afd1d9" d="M 108.5,169.5 C 108.034,178.961 106.701,188.295 104.5,197.5C 94.1667,197.5 83.8333,197.5 73.5,197.5C 62.8125,197.646 52.1459,197.312 41.5,196.5C 40.4356,188.869 40.2689,181.202 41,173.5C 41.1135,168.826 42.2802,164.493 44.5,160.5C 50.4006,165.725 57.0673,169.725 64.5,172.5C 65.3184,175.107 65.8184,177.774 66,180.5C 66.3879,181.428 67.0546,182.095 68,182.5C 72.6521,180.675 76.9854,178.342 81,175.5C 84.1059,178.442 87.6059,180.775 91.5,182.5C 94.775,179.687 96.1083,176.02 95.5,171.5C 99.8333,170.833 104.167,170.167 108.5,169.5 Z"/></g>
<g><path style="opacity:1" fill="#050708" d="M 122.5,163.5 C 123.873,163.343 125.207,163.51 126.5,164C 127.694,166.658 126.694,167.824 123.5,167.5C 123.167,166.167 122.833,164.833 122.5,163.5 Z"/></g>
<g><path style="opacity:1" fill="#7ca5ad" d="M 73.5,197.5 C 83.8333,197.5 94.1667,197.5 104.5,197.5C 106.701,188.295 108.034,178.961 108.5,169.5C 109.302,168.115 109.969,168.282 110.5,170C 114.037,178.989 116.537,188.155 118,197.5C 103.142,198.602 88.3088,198.602 73.5,197.5 Z"/></g>
<g><path style="opacity:1" fill="#cbc42d" d="M 88.5,173.5 C 90.2252,173.843 90.7252,174.843 90,176.5C 88.9614,175.756 88.4614,174.756 88.5,173.5 Z"/></g>
<g><path style="opacity:1" fill="#918c1e" d="M 70.5,174.5 C 73.0009,174.511 73.1676,175.178 71,176.5C 70.5357,175.906 70.369,175.239 70.5,174.5 Z"/></g>
<g><path style="opacity:1" fill="#487787" d="M 35.5,174.5 C 36.3292,182.323 36.8292,190.323 37,198.5C 39.3051,200.022 40.8051,202.022 41.5,204.5C 37.55,203.888 33.7166,202.888 30,201.5C 30.7124,192.31 32.5457,183.31 35.5,174.5 Z"/></g>
<g><path style="opacity:1" fill="#719300" d="M 46.5,202.5 C 49.8984,202.18 53.2317,202.513 56.5,203.5C 59.2984,209.602 62.9651,215.102 67.5,220C 66.2068,220.49 64.8734,220.657 63.5,220.5C 52.389,219.721 46.7223,213.721 46.5,202.5 Z"/></g>
<g><path style="opacity:1" fill="#577900" d="M 46.5,202.5 C 48.8097,201.836 51.3097,201.503 54,201.5C 68.8754,201.988 83.7087,202.988 98.5,204.5C 95.5166,210.078 94.1832,216.078 94.5,222.5C 86.4931,222.666 78.4931,222.5 70.5,222C 67.9644,221.814 65.631,221.314 63.5,220.5C 64.8734,220.657 66.2068,220.49 67.5,220C 62.9651,215.102 59.2984,209.602 56.5,203.5C 53.2317,202.513 49.8984,202.18 46.5,202.5 Z"/></g>
<g><path style="opacity:1" fill="#729400" d="M 110.5,202.5 C 112.857,202.337 115.19,202.503 117.5,203C 116.335,204.992 115.002,206.825 113.5,208.5C 111.919,210.142 111.253,212.142 111.5,214.5C 110.64,218.434 110.307,222.434 110.5,226.5C 107.167,226.5 103.833,226.5 100.5,226.5C 100.5,222.167 100.5,217.833 100.5,213.5C 101.039,207.295 104.372,203.628 110.5,202.5 Z"/></g>
<g><path style="opacity:1" fill="#557600" d="M 110.5,202.5 C 118.732,199.629 122.732,202.629 122.5,211.5C 122.448,214.937 121.281,217.937 119,220.5C 118.503,222.81 118.337,225.143 118.5,227.5C 112.167,227.5 105.833,227.5 99.5,227.5C 99.1805,222.637 99.5139,217.97 100.5,213.5C 100.5,217.833 100.5,222.167 100.5,226.5C 103.833,226.5 107.167,226.5 110.5,226.5C 110.307,222.434 110.64,218.434 111.5,214.5C 113.167,214.5 114.833,214.5 116.5,214.5C 116.975,211.687 115.975,209.687 113.5,208.5C 115.002,206.825 116.335,204.992 117.5,203C 115.19,202.503 112.857,202.337 110.5,202.5 Z"/></g>
<g><path style="opacity:1" fill="#ececec" d="M 142.5,201.5 C 145.044,201.104 147.211,201.771 149,203.5C 149.497,206.146 149.664,208.813 149.5,211.5C 142.173,211.944 134.84,212.277 127.5,212.5C 127.007,210.194 126.674,207.861 126.5,205.5C 132.094,204.768 137.427,203.435 142.5,201.5 Z"/></g>
<g><path style="opacity:1" fill="#f7f7f7" d="M 37.5,215.5 C 34.5,215.5 31.5,215.5 28.5,215.5C 28.5,213.5 28.5,211.5 28.5,209.5C 28.5,208.5 28.5,207.5 28.5,206.5C 31.8599,206.616 35.1933,206.949 38.5,207.5C 38.4249,210.206 38.0916,212.873 37.5,215.5 Z"/></g>
<g><path style="opacity:1" fill="#060900" d="M 113.5,208.5 C 115.975,209.687 116.975,211.687 116.5,214.5C 114.833,214.5 113.167,214.5 111.5,214.5C 111.253,212.142 111.919,210.142 113.5,208.5 Z"/></g>
<g><path style="opacity:1" fill="#6f9100" d="M 53.5,223.5 C 53.7678,225.099 53.4345,226.432 52.5,227.5C 49.1667,227.5 45.8333,227.5 42.5,227.5C 42.3341,222.489 42.5007,217.489 43,212.5C 45.3283,217.327 48.8283,220.994 53.5,223.5 Z"/></g>
<g><path style="opacity:1" fill="#929292" d="M 28.5,209.5 C 28.5,211.5 28.5,213.5 28.5,215.5C 31.5,215.5 34.5,215.5 37.5,215.5C 34.3752,216.479 31.0419,216.813 27.5,216.5C 27.1984,213.941 27.5318,211.607 28.5,209.5 Z"/></g>
<g><path style="opacity:1" fill="#f5f5f5" d="M 127.5,216.5 C 134.5,216.5 141.5,216.5 148.5,216.5C 148.835,223.513 149.002,230.513 149,237.5C 143.401,242.717 136.901,245.884 129.5,247C 126.449,244.286 123.782,241.286 121.5,238C 121.78,236.605 122.447,235.438 123.5,234.5C 126.333,235.933 129.333,236.6 132.5,236.5C 132.657,235.127 132.49,233.793 132,232.5C 121.816,229.208 120.316,223.874 127.5,216.5 Z"/></g>
<g><path style="opacity:1" fill="#707171" d="M 32.5,221.5 C 30.8333,221.5 29.1667,221.5 27.5,221.5C 27.5,225.5 27.5,229.5 27.5,233.5C 26.5151,229.366 26.1818,225.032 26.5,220.5C 28.7354,220.205 30.7354,220.539 32.5,221.5 Z"/></g>
<g><path style="opacity:1" fill="#f9f9f9" d="M 32.5,221.5 C 34.1667,221.5 35.8333,221.5 37.5,221.5C 37.5,225.167 37.5,228.833 37.5,232.5C 39.5,232.5 41.5,232.5 43.5,232.5C 43.8297,238.868 43.4963,245.202 42.5,251.5C 37.7505,248.375 32.9172,245.375 28,242.5C 27.502,239.518 27.3354,236.518 27.5,233.5C 27.5,229.5 27.5,225.5 27.5,221.5C 29.1667,221.5 30.8333,221.5 32.5,221.5 Z"/></g>
<g><path style="opacity:1" fill="#517200" d="M 53.5,223.5 C 77.2023,227.586 76.869,228.919 52.5,227.5C 53.4345,226.432 53.7678,225.099 53.5,223.5 Z"/></g>
<g><path style="opacity:1" fill="#d7b861" d="M 106.5,232.5 C 106.5,236.833 106.5,241.167 106.5,245.5C 108.5,245.5 110.5,245.5 112.5,245.5C 112.5,241.167 112.5,236.833 112.5,232.5C 114.288,232.215 115.955,232.548 117.5,233.5C 115.728,238.21 116.728,242.21 120.5,245.5C 117.375,246.479 114.042,246.813 110.5,246.5C 108.833,246.5 107.167,246.5 105.5,246.5C 105.181,241.637 105.514,236.97 106.5,232.5 Z"/></g>
<g><path style="opacity:1" fill="#feee95" d="M 106.5,232.5 C 108.5,232.5 110.5,232.5 112.5,232.5C 112.5,236.833 112.5,241.167 112.5,245.5C 110.5,245.5 108.5,245.5 106.5,245.5C 106.5,241.167 106.5,236.833 106.5,232.5 Z"/></g>
<g><path style="opacity:1" fill="#fdeb92" d="M 48.5,246.5 C 48.5,244.167 48.5,241.833 48.5,239.5C 49.4614,237.735 49.7947,235.735 49.5,233.5C 51.7659,233.141 53.5993,233.808 55,235.5C 55.4986,239.152 55.6653,242.818 55.5,246.5C 53.1667,246.5 50.8333,246.5 48.5,246.5 Z"/></g>
<g><path style="opacity:1" fill="#debf66" d="M 48.5,246.5 C 50.8333,246.5 53.1667,246.5 55.5,246.5C 55.6653,242.818 55.4986,239.152 55,235.5C 53.5993,233.808 51.7659,233.141 49.5,233.5C 49.7947,235.735 49.4614,237.735 48.5,239.5C 48.5,237.167 48.5,234.833 48.5,232.5C 53.5365,232.413 58.5365,232.746 63.5,233.5C 63.5,238.167 63.5,242.833 63.5,247.5C 58.3054,247.821 53.3054,247.487 48.5,246.5 Z"/></g>
<g><path style="opacity:1" fill="#60532a" d="M 120.5,245.5 C 121.043,245.56 121.376,245.893 121.5,246.5C 117.685,247.808 114.019,247.808 110.5,246.5C 114.042,246.813 117.375,246.479 120.5,245.5 Z"/></g>
<g><path style="opacity:1" fill="#ab0a00" d="M 54.5,252.5 C 54.5,254.833 54.5,257.167 54.5,259.5C 52.1667,259.5 49.8333,259.5 47.5,259.5C 47.5,258.167 47.5,256.833 47.5,255.5C 47.5,254.167 47.5,252.833 47.5,251.5C 49.861,251.674 52.1944,252.007 54.5,252.5 Z"/></g>
<g><path style="opacity:1" fill="#6a0300" d="M 54.5,252.5 C 62.1528,250.828 65.1528,253.828 63.5,261.5C 57.8698,260.708 52.2031,260.375 46.5,260.5C 46.2155,258.585 46.5489,256.919 47.5,255.5C 47.5,256.833 47.5,258.167 47.5,259.5C 49.8333,259.5 52.1667,259.5 54.5,259.5C 54.5,257.167 54.5,254.833 54.5,252.5 Z"/></g>
<g><path style="opacity:1" fill="#ae0a00" d="M 111.5,251.5 C 111.674,253.861 112.007,256.194 112.5,258.5C 110.167,258.5 107.833,258.5 105.5,258.5C 105.5,256.5 105.5,254.5 105.5,252.5C 107.265,251.539 109.265,251.205 111.5,251.5 Z"/></g>
<g><path style="opacity:1" fill="#720300" d="M 111.5,251.5 C 119.153,249.828 122.153,252.828 120.5,260.5C 115.146,260.431 109.813,260.098 104.5,259.5C 104.198,256.941 104.532,254.607 105.5,252.5C 105.5,254.5 105.5,256.5 105.5,258.5C 107.833,258.5 110.167,258.5 112.5,258.5C 112.007,256.194 111.674,253.861 111.5,251.5 Z"/></g>
<g><path style="opacity:1" fill="#afd2da" d="M 105.5,264.5 C 110.886,264.777 116.219,265.444 121.5,266.5C 122.332,271.481 122.498,276.481 122,281.5C 121.167,282.333 120.333,283.167 119.5,284C 108.833,284.667 98.1667,284.667 87.5,284C 86.6634,282.989 86.33,281.822 86.5,280.5C 93.4292,275.87 99.7626,270.536 105.5,264.5 Z"/></g>
<g><path style="opacity:1" fill="#abcdd4" d="M 45.5,265.5 C 46.6216,264.844 47.9549,264.511 49.5,264.5C 54.127,265.491 58.7937,266.157 63.5,266.5C 64.1645,270.487 64.8312,274.487 65.5,278.5C 65.4016,280.937 64.4016,282.937 62.5,284.5C 51.5202,285.499 40.5202,285.832 29.5,285.5C 29.5674,284.041 29.2341,282.708 28.5,281.5C 34.8027,276.342 41.136,271.175 47.5,266C 46.9056,265.536 46.2389,265.369 45.5,265.5 Z"/></g>
<g><path style="opacity:1" fill="#eaeaea" d="M 105.5,264.5 C 99.7626,270.536 93.4292,275.87 86.5,280.5C 85.4265,279.749 85.2599,278.749 86,277.5C 91.3732,271.261 97.8732,266.928 105.5,264.5 Z"/></g>
<g><path style="opacity:1" fill="#f0f0f0" d="M 45.5,265.5 C 46.2389,265.369 46.9056,265.536 47.5,266C 41.136,271.175 34.8027,276.342 28.5,281.5C 28.6216,277.853 30.2882,275.019 33.5,273C 35.792,271.71 37.792,270.043 39.5,268C 41.4068,266.878 43.4068,266.045 45.5,265.5 Z"/></g>
</svg>
